<?xml version="1.0" standalone="no"?>
<!DOCTYPE svg PUBLIC "-//W3C//DTD SVG 20010904//EN"
 "http://www.w3.org/TR/2001/REC-SVG-20010904/DTD/svg10.dtd">
<svg version="1.0" xmlns="http://www.w3.org/2000/svg"
 width="224.000000pt" height="226.000000pt" viewBox="0 0 224.000000 226.000000"
 preserveAspectRatio="xMidYMid meet">

<g transform="translate(0.000000,226.000000) scale(0.100000,-0.100000)"
fill="#000000" stroke="none">
<path d="M924 2189 c-3 -6 1 -18 10 -27 15 -15 17 -15 32 0 19 19 11 38 -16
38 -10 0 -22 -5 -26 -11z"/>
<path d="M1092 2138 c-8 -11 -16 -109 -13 -165 1 -19 38 -16 45 3 3 9 6 32 6
52 0 50 11 64 46 60 28 -3 29 -5 32 -66 2 -46 7 -65 18 -69 24 -9 34 15 34 80
0 49 -4 62 -26 84 -22 22 -32 25 -69 21 -24 -3 -48 -1 -53 4 -5 5 -13 4 -20
-4z"/>
<path d="M938 2118 c-4 -11 6 -97 17 -145 4 -15 13 -23 27 -23 20 0 20 3 14
75 -4 42 -9 82 -13 90 -6 18 -40 20 -45 3z"/>
<path d="M625 2100 c-3 -5 1 -23 10 -39 19 -38 19 -41 -5 -41 -34 0 -70 -44
-70 -85 0 -81 100 -126 156 -70 14 14 31 25 39 25 25 0 17 26 -37 125 -50 90
-76 113 -93 85z m59 -136 c30 -30 13 -74 -29 -74 -27 0 -45 18 -45 45 0 42 44
59 74 29z"/>
<path d="M1487 2009 c-47 -81 -56 -103 -47 -115 7 -8 16 -14 21 -14 8 0 44 52
52 74 2 5 26 -3 55 -19 l52 -28 -22 -38 c-21 -38 -19 -69 4 -69 18 0 131 197
124 215 -10 26 -34 16 -57 -22 -12 -21 -24 -40 -25 -42 -4 -4 -94 48 -94 55 0
3 8 21 19 42 20 41 18 62 -7 62 -11 0 -38 -37 -75 -101z"/>
<path d="M392 1854 c-12 -8 -22 -21 -22 -29 0 -8 -9 -19 -20 -25 -11 -6 -20
-17 -20 -24 0 -20 108 -118 127 -114 29 5 25 25 -17 72 -33 39 -38 51 -30 67
16 29 50 23 90 -16 25 -24 42 -34 53 -29 27 10 20 29 -28 73 -49 45 -92 54
-133 25z"/>
<path d="M1721 1823 c-49 -40 -41 -130 14 -155 14 -6 25 -17 25 -24 0 -29 21
-21 79 28 58 51 78 88 46 88 -8 0 -15 7 -15 15 0 9 -11 27 -25 40 -30 30 -92
34 -124 8z m107 -67 c5 -22 -26 -56 -49 -56 -24 0 -51 42 -43 64 16 41 84 34
92 -8z"/>
<path d="M922 1770 c-458 -120 -659 -662 -395 -1062 l25 -38 56 50 c65 58 143
100 184 100 16 0 46 -9 68 -20 22 -11 47 -20 57 -20 10 0 43 -16 74 -35 62
-38 99 -47 106 -27 5 12 -23 41 -179 188 -65 60 -90 110 -95 184 -9 131 103
205 213 141 47 -28 57 -26 40 7 -16 31 -60 74 -93 91 -90 46 -253 -42 -329
-177 -98 -173 -107 -186 -115 -167 -14 36 -10 195 7 259 51 198 213 359 414
411 79 20 238 16 315 -8 115 -37 248 -143 313 -249 53 -89 74 -161 81 -284 6
-110 6 -111 44 -157 21 -26 42 -47 47 -47 14 0 21 42 27 155 6 128 -14 234
-68 343 -87 177 -267 321 -459 366 -91 22 -247 20 -338 -4z"/>
<path d="M244 1664 c4 -11 -1 -22 -14 -31 -73 -51 -26 -163 68 -163 39 0 82
43 82 81 0 19 5 29 15 29 35 0 10 30 -54 64 -76 40 -107 46 -97 20z m81 -74
c27 -30 7 -70 -34 -70 -45 0 -66 44 -35 74 21 22 47 20 69 -4z"/>
<path d="M1883 1607 c-41 -20 -63 -37 -63 -49 0 -28 17 -30 59 -8 50 25 77 25
91 1 15 -28 4 -46 -41 -66 -52 -24 -67 -42 -48 -60 12 -12 22 -10 68 12 79 38
101 108 47 152 -9 7 -16 22 -16 32 0 27 -24 23 -97 -14z"/>
<path d="M54 1415 c-9 -23 4 -33 52 -41 50 -7 47 2 28 -93 -5 -28 -6 -28 -46
-19 -47 10 -68 5 -68 -16 0 -22 9 -25 126 -47 109 -21 133 -18 121 15 -4 9
-24 19 -48 22 l-41 7 7 50 c3 28 8 54 10 58 3 3 24 3 47 -1 24 -5 46 -6 50 -4
7 5 12 44 5 44 -1 0 -49 9 -107 20 -125 24 -129 24 -136 5z"/>
<path d="M1961 1367 c-46 -27 -64 -86 -37 -123 8 -10 12 -29 9 -41 -6 -28 2
-28 142 -5 88 15 100 19 100 37 0 16 -7 20 -38 20 -35 0 -37 2 -37 32 0 66
-82 112 -139 80z m77 -49 c7 -7 12 -21 12 -33 0 -12 -5 -26 -12 -33 -27 -27
-78 -7 -78 29 0 39 52 63 78 37z"/>
<path d="M1018 1138 c-43 -23 -78 -44 -78 -47 0 -4 36 -25 80 -49 l80 -44 66
36 c35 20 67 36 69 36 3 0 5 -22 5 -50 0 -38 4 -50 15 -50 13 0 15 11 13 61
l-3 62 -80 43 c-44 24 -82 44 -85 44 -3 0 -40 -19 -82 -42z"/>
<path d="M186 1040 c9 -84 36 -192 64 -261 29 -72 103 -195 144 -241 45 -50
36 -29 -16 40 -75 98 -143 248 -163 357 -22 119 -35 167 -29 105z"/>
<path d="M2007 1053 c-3 -15 -9 -50 -12 -77 -16 -122 -86 -282 -175 -402 l-50
-69 43 48 c92 101 174 288 196 447 10 73 8 110 -2 53z"/>
<path d="M2037 1018 c-16 -144 -90 -335 -169 -439 -47 -61 -56 -78 -29 -54 35
31 118 172 150 255 34 88 64 224 59 272 -2 23 -5 13 -11 -34z"/>
<path d="M151 1025 c-1 -55 33 -191 69 -277 33 -76 135 -238 150 -238 6 0 -8
24 -31 53 -85 111 -159 294 -179 442 -6 50 -8 53 -9 20z"/>
<path d="M990 992 c0 -23 9 -32 55 -57 l54 -30 56 30 c46 25 55 34 55 58 0 15
-3 27 -6 27 -3 0 -28 -12 -55 -27 l-49 -28 -49 28 c-27 15 -52 27 -55 27 -3 0
-6 -13 -6 -28z"/>
<path d="M494 485 c-4 -8 -3 -26 0 -40 5 -18 2 -25 -9 -25 -8 0 -15 7 -15 15
0 8 -5 15 -11 15 -15 0 -7 -31 12 -43 9 -6 24 -7 33 -4 14 5 16 14 10 44 l-7
38 22 -19 c16 -15 21 -16 21 -5 0 34 -45 52 -56 24z"/>
<path d="M1623 436 c3 -8 -1 -20 -9 -26 -17 -15 -18 -42 -2 -58 17 -17 41 -15
60 7 15 18 14 21 -10 55 -25 36 -49 49 -39 22z m33 -47 c10 -17 -13 -36 -27
-22 -12 12 -4 33 11 33 5 0 12 -5 16 -11z"/>
<path d="M567 384 c-14 -14 -7 -54 12 -64 12 -6 22 -6 25 -1 3 5 -1 11 -9 15
-18 7 -20 36 -2 36 7 0 19 -6 26 -12 10 -11 12 -9 9 7 -3 20 -46 33 -61 19z"/>
<path d="M680 324 c-22 -51 -19 -71 6 -36 22 32 38 28 30 -9 -4 -22 -2 -29 7
-27 20 7 21 60 2 74 -9 7 -14 17 -11 23 4 5 2 12 -3 16 -6 3 -19 -16 -31 -41z"/>
<path d="M1497 336 c-17 -13 -17 -16 -2 -45 20 -39 29 -40 20 -2 -8 36 10 49
27 21 15 -23 28 -26 28 -7 0 15 -31 47 -46 47 -5 0 -17 -7 -27 -14z"/>
<path d="M1412 271 c3 -35 -13 -43 -27 -12 -5 11 -13 21 -17 21 -14 0 -8 -27
10 -50 15 -19 21 -20 43 -10 25 11 26 15 16 46 -13 42 -28 45 -25 5z"/>
<path d="M1243 282 c-8 -5 -9 -20 -1 -55 9 -45 28 -65 28 -31 0 9 8 23 18 30
16 12 15 13 -5 14 -14 0 -23 6 -23 15 0 8 9 15 19 15 11 0 23 5 26 10 7 12
-44 13 -62 2z"/>
<path d="M794 254 c-8 -31 6 -47 36 -42 53 7 47 68 -6 68 -17 0 -25 -7 -30
-26z m51 -14 c0 -22 -29 -18 -33 3 -3 14 1 18 15 15 10 -2 18 -10 18 -18z"/>
<path d="M925 234 c-6 -42 -2 -64 10 -52 11 10 17 98 7 98 -5 0 -13 -21 -17
-46z"/>
<path d="M1004 216 c-8 -35 2 -46 42 -46 32 0 34 2 34 33 0 30 -3 33 -35 35
-29 2 -35 -1 -41 -22z m54 -13 c-2 -10 -10 -18 -18 -18 -8 0 -16 8 -18 18 -2
12 3 17 18 17 15 0 20 -5 18 -17z"/>
<path d="M1140 203 c0 -18 5 -33 10 -33 6 0 10 10 10 21 0 12 8 28 18 35 15
12 14 13 -10 12 -25 -2 -28 -7 -28 -35z"/>
</g>
</svg>
